<svg xmlns="http://www.w3.org/2000/svg" viewBox="0 0 335.75 408.29"><defs><style>.cls-1{fill:#97649b;}.cls-2{fill:#793c7c;}.cls-3{fill:#380b38;}</style></defs><g id="Layer_2" data-name="Layer 2"><g id="Layer_1-2" data-name="Layer 1"><path class="cls-1" d="M333.32,217.14c19.08,109.27-76,184.37-227.37,191.11a29.81,29.81,0,0,1-28.34-42.4l39.75-85a196.93,196.93,0,0,0,11.19-104.63L97.13,36.43C91.54,11.55,117.77-8.44,140.25,3.6,219.83,46.24,317.17,124.65,333.32,217.14Z"/><path class="cls-2" d="M268.35,224.88c17.36,99.46-69.17,167.82-207,174a27.14,27.14,0,0,1-25.8-38.6l36.18-77.35A179.23,179.23,0,0,0,82,187.65L53.36,60.4C48.27,37.75,72.14,19.55,92.6,30.51,165,69.32,253.65,140.69,268.35,224.88Z"/><path class="cls-3" d="M202.54,241.09c15,85.6-59.52,144.43-178.11,149.71a23.36,23.36,0,0,1-22.2-33.22L33.37,291a154.24,154.24,0,0,0,8.76-82L17.52,99.53C13.14,80,33.69,64.38,51.3,73.81,113.64,107.21,189.89,168.63,202.54,241.09Z"/></g></g></svg>