<svg width="185" height="45" viewBox="0 0 185 45" fill="none" xmlns="http://www.w3.org/2000/svg">
<g clip-path="url(#clip0_20_17)">
<path d="M50.7376 23.1909H47.5592V37.8332H42.9075V23.1909H40.8445V19.3556H42.9075V18.4201C42.9075 16.1521 43.541 14.4847 44.8079 13.4179C46.0747 12.3512 47.9858 11.8507 50.541 11.9163V15.855C49.4278 15.8321 48.6525 16.0208 48.2152 16.4212C47.7779 16.8217 47.5592 17.5443 47.5592 18.5892V19.3572H50.7376V23.1909Z" fill="black"/>
<path d="M68.2611 29.9951H54.996C55.1034 31.3288 55.5617 32.3736 56.3709 33.1296C57.1825 33.8875 58.2518 34.2942 59.3527 34.2637C61.0547 34.2637 62.2663 33.5186 62.9873 32.0284H67.9339C67.4256 33.7861 66.3672 35.3265 64.9198 36.4152C63.4391 37.5607 61.6156 38.1335 59.4494 38.1335C57.8083 38.1602 56.1886 37.7519 54.7494 36.9486C53.3747 36.1719 52.2488 35.0084 51.5065 33.5974C50.7317 32.151 50.3444 30.483 50.3444 28.5935C50.3444 26.6822 50.7264 25.0033 51.4903 23.5569C52.2179 22.15 53.334 20.9907 54.701 20.2221C56.0764 19.4442 57.6592 19.0552 59.4494 19.0552C61.0637 19.0264 62.6587 19.4155 64.0849 20.186C65.4296 20.9207 66.5343 22.0392 67.2634 23.4043C68.0155 24.7938 68.3916 26.3889 68.3916 28.1898C68.3967 28.7942 68.353 29.398 68.2611 29.9951ZM63.6433 26.8589C63.6207 25.6554 63.1946 24.6937 62.3651 23.9737C61.5356 23.2538 60.5201 22.8928 59.3188 22.8906C58.2675 22.8594 57.2436 23.2347 56.4531 23.9409C55.6772 24.6422 55.2023 25.6149 55.0282 26.8589H63.6433Z" fill="black"/>
<path d="M74.8791 23.1909V32.1286C74.8791 32.7522 75.0258 33.2019 75.3207 33.4809C75.6157 33.7598 76.1121 33.8977 76.8116 33.8977H78.9408V37.8364H76.0573C72.189 37.8364 70.2548 35.9218 70.2548 32.0925V23.1909H68.0983V19.3556H70.2597V14.785H74.8791V19.3556H78.9408V23.1909H74.8791Z" fill="black"/>
<path d="M97.1911 19.3556V37.8331H92.5669V35.4978C91.9634 36.3109 91.1708 36.9583 90.2604 37.3818C89.292 37.8423 88.2346 38.0762 87.1658 38.0662C85.8533 38.093 84.556 37.7771 83.3974 37.1488C82.2962 36.528 81.4014 35.5877 80.8266 34.4475C80.2023 33.2549 79.8901 31.8381 79.8901 30.1969V19.3556H84.4757V29.5306C84.4757 30.9978 84.8362 32.1264 85.5572 32.9163C86.2782 33.7062 87.2609 34.1012 88.5052 34.1012C89.772 34.1012 90.7654 33.7062 91.4854 32.9163C92.2053 32.1264 92.5658 30.9978 92.5669 29.5306V19.3556H97.1911Z" fill="black"/>
<path d="M102.46 37.3162C101.356 36.8314 100.392 36.0676 99.6588 35.0974C98.9851 34.2024 98.5919 33.1215 98.5305 31.9956H103.155C103.197 32.347 103.311 32.6856 103.489 32.9898C103.667 33.2941 103.905 33.5574 104.188 33.7631C104.787 34.2314 105.535 34.465 106.432 34.4639C107.305 34.4639 107.987 34.2861 108.479 33.9305C108.705 33.7845 108.891 33.5826 109.02 33.3435C109.148 33.1045 109.216 32.8361 109.215 32.5635C109.215 31.9628 108.915 31.5126 108.314 31.2128C107.713 30.913 106.758 30.5848 105.448 30.2281C104.317 29.9652 103.206 29.6196 102.123 29.1942C101.262 28.8376 100.498 28.2746 99.8957 27.5531C99.2736 26.82 98.9625 25.8304 98.9625 24.5842C98.9561 23.5807 99.2601 22.6006 99.8312 21.7828C100.408 20.9371 101.238 20.2702 102.32 19.7823C103.402 19.2943 104.674 19.0498 106.137 19.0487C108.299 19.0487 110.024 19.599 111.312 20.6997C112.6 21.8003 113.31 23.2845 113.441 25.1521H109.044C109.024 24.8139 108.933 24.4838 108.78 24.1833C108.626 23.8828 108.412 23.6185 108.151 23.4075C107.614 22.9699 106.899 22.7511 106.006 22.7511C105.175 22.7511 104.537 22.9065 104.09 23.2172C103.877 23.3564 103.703 23.5495 103.585 23.7776C103.467 24.0057 103.409 24.261 103.417 24.5186C103.417 25.1411 103.723 25.6132 104.335 25.9349C104.946 26.2566 105.896 26.5848 107.184 26.9196C108.288 27.1859 109.371 27.5314 110.427 27.9535C111.285 28.3132 112.044 28.8798 112.639 29.6045C113.261 30.3496 113.583 31.3342 113.606 32.5585C113.618 33.5838 113.314 34.5871 112.737 35.4272C112.108 36.3165 111.244 37.0066 110.247 37.4179C109.167 37.8961 107.906 38.1351 106.464 38.1351C105.087 38.1589 103.721 37.8795 102.46 37.3162Z" fill="black"/>
<path d="M125.075 38.1335C123.02 38.1335 121.173 37.6559 119.585 36.7139C117.997 35.767 116.703 34.383 115.852 32.721C114.955 31.006 114.5 28.9677 114.5 26.6668C114.5 24.366 114.955 22.3277 115.852 20.6127C116.703 18.9503 117.997 17.5662 119.585 16.6198C121.173 15.6778 123.02 15.2002 125.075 15.2002C127.723 15.2002 129.941 15.8911 131.664 17.2549C133.26 18.517 134.383 20.2812 135.007 22.5066H129.772C129.444 21.6004 128.863 20.8115 128.1 20.2369C127.27 19.6182 126.239 19.3047 125.038 19.3047C123.312 19.3047 121.924 19.9612 120.912 21.2741C119.921 22.5509 119.418 24.3676 119.418 26.6734C119.418 28.9513 119.921 30.7549 120.912 32.0301C121.924 33.343 123.312 33.9995 125.038 33.9995C127.386 33.9995 128.979 32.9376 129.772 30.8403H135.004C134.377 32.9869 133.247 34.7314 131.642 36.0295C129.911 37.4179 127.696 38.1335 125.075 38.1335Z" fill="black"/>
<path d="M137.002 23.5569C137.671 22.1835 138.704 21.0283 139.984 20.2221C141.252 19.4405 142.71 19.0363 144.193 19.0552C145.547 19.0552 146.731 19.3331 147.747 19.8889C148.702 20.3959 149.534 21.1142 150.18 21.9912V19.3556H154.798V37.8331H150.18V35.1318C149.547 36.0372 148.71 36.7745 147.739 37.2817C146.632 37.8666 145.399 38.1595 144.152 38.1335C142.675 38.1465 141.226 37.7272 139.976 36.9256C138.699 36.0981 137.671 34.9292 137.002 33.5465C136.271 32.0903 135.905 30.4174 135.906 28.5279C135.901 26.6592 136.266 25.0022 137.002 23.5569ZM149.532 25.6756C149.125 24.8959 148.511 24.2487 147.76 23.808C147.034 23.377 146.208 23.1504 145.368 23.1515C144.538 23.1475 143.723 23.3702 143.006 23.7965C142.266 24.2384 141.66 24.8788 141.253 25.6477C140.788 26.5341 140.557 27.5282 140.582 28.5328C140.56 29.5475 140.791 30.5515 141.253 31.4508C141.661 32.242 142.274 32.9048 143.026 33.3676C143.731 33.806 144.541 34.0372 145.368 34.0356C146.208 34.0367 147.034 33.8101 147.76 33.3791C148.511 32.9373 149.125 32.2897 149.532 31.5098C149.969 30.6991 150.187 29.7265 150.188 28.5919C150.19 27.4573 149.968 26.4852 149.524 25.6756H149.532Z" fill="black"/>
<path d="M163.987 19.9218C164.982 19.3547 166.106 19.067 167.246 19.0881V23.9918H166.034C164.593 23.9918 163.507 24.3364 162.775 25.0257C162.043 25.715 161.677 26.9152 161.677 28.6264V37.8332H157.092V19.3556H161.677V22.2226C162.243 21.2685 163.038 20.4767 163.987 19.9218Z" fill="black"/>
<path d="M184.873 29.9951H171.606C171.713 31.3288 172.172 32.3736 172.981 33.1296C173.793 33.8874 174.862 34.2941 175.963 34.2637C177.666 34.2637 178.878 33.5186 179.599 32.0284H184.55C184.041 33.7855 182.983 35.3256 181.536 36.4152C180.05 37.5607 178.227 38.1335 176.066 38.1335C174.424 38.16 172.804 37.7517 171.364 36.9486C169.985 36.1736 168.855 35.01 168.11 33.5974C167.335 32.151 166.948 30.483 166.948 28.5935C166.948 26.6822 167.33 25.0033 168.094 23.5569C168.821 22.15 169.938 20.9907 171.305 20.2221C172.681 19.4442 174.264 19.0553 176.055 19.0553C177.669 19.0277 179.264 19.4179 180.69 20.1893C182.034 20.9241 183.138 22.0426 183.867 23.4075C184.619 24.797 184.995 26.3922 184.995 28.1931C185.003 28.7962 184.962 29.3988 184.873 29.9951ZM180.253 26.8589C180.233 25.6554 179.807 24.6937 178.977 23.9737C178.146 23.2538 177.131 22.8928 175.93 22.8906C174.795 22.8906 173.839 23.2407 173.063 23.9409C172.287 24.6411 171.812 25.6138 171.638 26.8589H180.253Z" fill="black"/>
<path d="M36.0816 23.9327C38.1463 35.977 27.8615 44.2549 11.4695 44.9967C10.9151 45.022 10.3636 44.9012 9.86854 44.6459C9.37344 44.3905 8.95146 44.0094 8.64347 43.5393C8.33547 43.0692 8.15188 42.5261 8.11047 41.9626C8.06906 41.3991 8.17124 40.8343 8.40711 40.3228L12.7106 30.9568C14.1342 27.2957 14.5526 23.3092 13.9211 19.4245L10.5153 4.01586C9.9093 1.27352 12.7477 -0.930525 15.1895 0.405361C23.7965 5.09573 34.3312 13.738 36.0816 23.9327Z" fill="#97649B"/>
<path d="M29.0477 24.7812C30.9287 35.744 21.561 43.2784 6.64382 43.9546C6.13992 43.9767 5.63891 43.8664 5.18902 43.6342C4.73913 43.4021 4.3555 43.056 4.07505 42.6291C3.79461 42.2023 3.62679 41.7091 3.58776 41.1971C3.54873 40.6851 3.63979 40.1715 3.85219 39.7057L7.76885 31.1816C9.06411 27.8468 9.44301 24.2158 8.86487 20.6783L5.77667 6.65646C5.22544 4.16028 7.80914 2.15481 10.0237 3.36269C17.8651 7.64114 27.4569 15.5071 29.0477 24.7812Z" fill="#793C7C"/>
<path d="M21.9204 26.5717C23.5322 36.0066 15.4732 42.4907 2.64011 43.0733C2.20605 43.0924 1.77448 42.9973 1.38706 42.797C0.999633 42.5968 0.669448 42.2983 0.428373 41.9303C0.187297 41.5622 0.0434743 41.1371 0.0107873 40.696C-0.0218997 40.2549 0.0576532 39.8126 0.241766 39.4119L3.61203 32.076C4.72535 29.2103 5.05348 26.0906 4.56137 23.0498L1.89708 10.971C1.79066 10.4902 1.82209 9.98838 1.98763 9.52523C2.15317 9.06208 2.44585 8.65707 2.83089 8.35837C3.21592 8.05967 3.6771 7.87984 4.1596 7.84027C4.64209 7.80069 5.1256 7.90303 5.55262 8.13512C12.3012 11.8162 20.5552 18.5859 21.9204 26.5717Z" fill="#380B38"/>
</g>
<defs>
<clipPath id="clip0_20_17">
<rect width="185" height="45" fill="white"/>
</clipPath>
</defs>
</svg>
